HIERARCHY
ROOT Hips
{
	OFFSET 0.000000 35.082581 0.000000
	CHANNELS 6 Xposition Yposition Zposition Xrotation Yrotation Zrotation 
	JOINT Spine
	{
		OFFSET 0.000000 6.876099 0.125700
		CHANNELS 3 Xrotation Yrotation Zrotation
		JOINT Spine1
		{
			OFFSET 0.000000 5.730043 0.104720
			CHANNELS 3 Xrotation Yrotation Zrotation
			JOINT Spine1_split
			{
				OFFSET 0.000000 5.730043 0.104720
				CHANNELS 3 Xrotation Yrotation Zrotation
				JOINT Spine2
				{
					OFFSET 0.000000 5.730043 0.104720
					CHANNELS 3 Xrotation Yrotation Zrotation
					JOINT Neck
					{
						OFFSET 0.000000 10.314075 0.188496
						CHANNELS 3 Xrotation Yrotation Zrotation
						JOINT Head
						{
							OFFSET 0.000000 7.643700 -2.377400
							CHANNELS 3 Xrotation Yrotation Zrotation
							JOINT HeadTop_End
							{
								OFFSET 0.000000 43.788605 -13.619600
								CHANNELS 3 Xrotation Yrotation Zrotation
								End Site
								{
									OFFSET 0.000000 0.000000 0.000000
								}
							}
						}
					}
					JOINT LeftShoulder
					{
						OFFSET 2.196100 4.412489 0.087492
						CHANNELS 3 Xrotation Yrotation Zrotation
						JOINT LeftShoulder_split
						{
							OFFSET 2.196100 4.412489 0.087492
							CHANNELS 3 Xrotation Yrotation Zrotation
							JOINT LeftArm
							{
								OFFSET 8.771219 -2.981674 -0.026999
								CHANNELS 3 Xrotation Yrotation Zrotation
								JOINT LeftForeArm
								{
									OFFSET 8.512804 0.000000 -0.000000
									CHANNELS 3 Xrotation Yrotation Zrotation
									JOINT LeftHand
									{
										OFFSET 18.484802 0.000000 -0.000000
										CHANNELS 3 Xrotation Yrotation Zrotation
										JOINT LeftHandThumb1
										{
											OFFSET 2.499420 -1.158070 2.653252
											CHANNELS 3 Xrotation Yrotation Zrotation
											JOINT LeftHandThumb2
											{
												OFFSET 2.370079 -1.368366 1.368366
												CHANNELS 3 Xrotation Yrotation Zrotation
												JOINT LeftHandThumb3
												{
													OFFSET 2.676727 -1.545410 1.545409
													CHANNELS 3 Xrotation Yrotation Zrotation
													JOINT LeftHandThumb4
													{
														OFFSET 1.692226 -0.977005 0.977007
														CHANNELS 3 Xrotation Yrotation Zrotation
														End Site
														{
															OFFSET 0.000000 0.000000 0.000000
														}
													}
												}
											}
										}
										JOINT LeftHandIndex1
										{
											OFFSET 7.924831 -0.457527 2.345128
											CHANNELS 3 Xrotation Yrotation Zrotation
											JOINT LeftHandIndex2
											{
												OFFSET 3.643303 0.000000 0.000000
												CHANNELS 3 Xrotation Yrotation Zrotation
												JOINT LeftHandIndex3
												{
													OFFSET 3.810799 0.000000 0.000000
													CHANNELS 3 Xrotation Yrotation Zrotation
													JOINT LeftHandIndex4
													{
														OFFSET 2.403702 0.000000 0.000000
														CHANNELS 3 Xrotation Yrotation Zrotation
														End Site
														{
															OFFSET 0.000000 0.000000 0.000000
														}
													}
												}
											}
										}
										JOINT LeftHandMiddle1
										{
											OFFSET 8.563995 0.000000 -0.000000
											CHANNELS 3 Xrotation Yrotation Zrotation
											JOINT LeftHandMiddle2
											{
												OFFSET 3.861618 0.000000 0.000000
												CHANNELS 3 Xrotation Yrotation Zrotation
												JOINT LeftHandMiddle3
												{
													OFFSET 3.701603 0.000000 0.000000
													CHANNELS 3 Xrotation Yrotation Zrotation
													JOINT LeftHandMiddle4
													{
														OFFSET 2.322544 0.000000 0.000000
														CHANNELS 3 Xrotation Yrotation Zrotation
														End Site
														{
															OFFSET 0.000000 0.000000 0.000000
														}
													}
												}
											}
										}
										JOINT LeftHandRing1
										{
											OFFSET 8.426460 -0.424637 -3.286992
											CHANNELS 3 Xrotation Yrotation Zrotation
											JOINT LeftHandRing2
											{
												OFFSET 3.126408 0.000000 0.000000
												CHANNELS 3 Xrotation Yrotation Zrotation
												JOINT LeftHandRing3
												{
													OFFSET 3.085026 0.000000 0.000000
													CHANNELS 3 Xrotation Yrotation Zrotation
													JOINT LeftHandRing4
													{
														OFFSET 1.644005 0.000000 0.000000
														CHANNELS 3 Xrotation Yrotation Zrotation
														End Site
														{
															OFFSET 0.000000 0.000000 0.000000
														}
													}
												}
											}
										}
									}
								}
							}
						}
					}
					JOINT RightShoulder
					{
						OFFSET -2.196100 4.412496 0.070690
						CHANNELS 3 Xrotation Yrotation Zrotation
						JOINT RightShoulder_split
						{
							OFFSET -2.196100 4.412496 0.070690
							CHANNELS 3 Xrotation Yrotation Zrotation
							JOINT RightArm
							{
								OFFSET -8.771282 -2.981682 -0.094208
								CHANNELS 3 Xrotation Yrotation Zrotation
								JOINT RightForeArm
								{
									OFFSET -8.494598 0.000000 0.000000
									CHANNELS 3 Xrotation Yrotation Zrotation
									JOINT RightHand
									{
										OFFSET -18.483803 0.000000 0.000001
										CHANNELS 3 Xrotation Yrotation Zrotation
										JOINT RightHandThumb1
										{
											OFFSET -2.527351 -1.008072 2.575253
											CHANNELS 3 Xrotation Yrotation Zrotation
											JOINT RightHandThumb2
											{
												OFFSET -2.321518 -1.340328 1.340329
												CHANNELS 3 Xrotation Yrotation Zrotation
												JOINT RightHandThumb3
												{
													OFFSET -2.657753 -1.534454 1.534455
													CHANNELS 3 Xrotation Yrotation Zrotation
													JOINT RightHandThumb4
													{
														OFFSET -1.807510 -1.043568 1.043567
														CHANNELS 3 Xrotation Yrotation Zrotation
														End Site
														{
															OFFSET 0.000000 0.000000 0.000000
														}
													}
												}
											}
										}
										JOINT RightHandIndex1
										{
											OFFSET -8.811420 0.015533 2.887987
											CHANNELS 3 Xrotation Yrotation Zrotation
											JOINT RightHandIndex2
											{
												OFFSET -3.537502 0.000000 0.000000
												CHANNELS 3 Xrotation Yrotation Zrotation
												JOINT RightHandIndex3
												{
													OFFSET -3.356201 0.000000 0.000000
													CHANNELS 3 Xrotation Yrotation Zrotation
													JOINT RightHandIndex4
													{
														OFFSET -1.933098 0.000000 0.000000
														CHANNELS 3 Xrotation Yrotation Zrotation
														End Site
														{
															OFFSET 0.000000 0.000000 0.000000
														}
													}
												}
											}
										}
										JOINT RightHandMiddle1
										{
											OFFSET -8.178135 0.000000 0.000000
											CHANNELS 3 Xrotation Yrotation Zrotation
											JOINT RightHandMiddle2
											{
												OFFSET -3.901302 0.000000 0.000000
												CHANNELS 3 Xrotation Yrotation Zrotation
												JOINT RightHandMiddle3
												{
													OFFSET -3.909599 0.000000 0.000000
													CHANNELS 3 Xrotation Yrotation Zrotation
													JOINT RightHandMiddle4
													{
														OFFSET -2.376003 0.000000 0.000000
														CHANNELS 3 Xrotation Yrotation Zrotation
														End Site
														{
															OFFSET 0.000000 0.000000 0.000000
														}
													}
												}
											}
										}
										JOINT RightHandRing1
										{
											OFFSET -7.559013 0.014137 -2.865403
											CHANNELS 3 Xrotation Yrotation Zrotation
											JOINT RightHandRing2
											{
												OFFSET -3.449306 0.000000 0.000000
												CHANNELS 3 Xrotation Yrotation Zrotation
												JOINT RightHandRing3
												{
													OFFSET -3.362106 0.000000 0.000000
													CHANNELS 3 Xrotation Yrotation Zrotation
													JOINT RightHandRing4
													{
														OFFSET -2.076401 0.000000 0.000000
														CHANNELS 3 Xrotation Yrotation Zrotation
														End Site
														{
															OFFSET 0.000000 0.000000 0.000000
														}
													}
												}
											}
										}
									}
								}
							}
						}
					}
				}
			}
		}
	}
	JOINT LeftUpLeg
	{
		OFFSET 10.205400 -3.823500 0.155100
		CHANNELS 3 Xrotation Yrotation Zrotation
		JOINT LeftLeg
		{
			OFFSET 0.708757 -12.982077 0.567790
			CHANNELS 3 Xrotation Yrotation Zrotation
			JOINT LeftFoot
			{
				OFFSET -0.708756 -10.717838 -2.184338
				CHANNELS 3 Xrotation Yrotation Zrotation
				JOINT LeftToeBase
				{
					OFFSET 0.108149 -7.191104 7.560241
					CHANNELS 3 Xrotation Yrotation Zrotation
					JOINT LeftToe_End
					{
						OFFSET 0.070230 0.081724 4.490308
						CHANNELS 3 Xrotation Yrotation Zrotation
						End Site
						{
							OFFSET 0.000000 0.000000 0.000000
						}
					}
				}
			}
		}
	}
	JOINT RightUpLeg
	{
		OFFSET -10.205400 -3.823500 0.005500
		CHANNELS 3 Xrotation Yrotation Zrotation
		JOINT RightLeg
		{
			OFFSET -0.708756 -12.982134 0.610632
			CHANNELS 3 Xrotation Yrotation Zrotation
			JOINT RightFoot
			{
				OFFSET 0.708754 -10.717769 -1.945823
				CHANNELS 3 Xrotation Yrotation Zrotation
				JOINT RightToeBase
				{
					OFFSET -0.108140 -7.191069 7.372968
					CHANNELS 3 Xrotation Yrotation Zrotation
					JOINT RightToe_End
					{
						OFFSET -0.070227 0.081735 4.479403
						CHANNELS 3 Xrotation Yrotation Zrotation
						End Site
						{
							OFFSET 0.000000 0.000000 0.000000
						}
					}
				}
			}
		}
	}
}
MOTION
Frames: 5
Frame Time: 0.016667
1.669046 22.296455 -2.237783 16.373871 -10.907074 -3.743821 11.265400 16.268641 -10.237384 2.878200 4.087946 -0.126407 0.000000 0.000000 0.000000 2.848459 4.312290 -0.311449 -0.690422 -2.335960 4.374013 -6.949600 -9.364417 11.092256 0.000001 0.000000 0.000000 1.187660 -1.370117 -14.873758 0.000000 0.000000 0.000000 -9.759267 30.208414 -41.048867 0.000003 -11.762796 -0.000005 17.749474 -17.726723 21.007635 -5.456671 -6.701482 3.223887 8.077432 27.563317 1.095385 -10.020044 -14.017858 7.739295 -0.000001 -0.000003 -0.000002 -1.812269 -6.056775 -12.583252 0.237188 1.651676 -16.342775 0.250117 1.695208 -16.786211 -0.000001 0.000000 -0.000000 -1.249866 -0.637582 -18.645255 0.387933 2.098236 -20.947902 0.466470 2.292747 -22.997839 0.000001 -0.000003 -0.000000 0.049632 3.688802 -26.109450 0.502167 2.375017 -23.874310 0.587662 2.559329 -25.860515 0.000001 -0.000001 -0.000000 2.870348 11.957075 -6.152304 0.000000 0.000000 0.000000 -33.803658 70.877529 6.927814 -0.000021 94.709548 -0.000060 17.111791 20.467022 -11.105435 -15.303035 26.927614 3.986253 9.854576 -45.625985 -5.441330 -7.056233 3.100997 -14.195942 -0.000002 -0.000002 0.000001 0.782862 -4.716600 13.868242 0.169899 -1.247744 15.507857 0.169806 -1.247375 15.503223 -0.000002 0.000001 0.000001 1.576771 -6.016255 32.822273 0.816461 -2.636021 34.413628 0.910240 -2.767783 36.402832 -0.000003 -0.000000 0.000000 2.347872 -6.542683 43.827401 1.218024 -3.142190 42.367861 1.329203 -3.259707 44.358455 0.000001 0.000001 0.000001 -98.446460 1.801882 -2.954550 39.592862 19.048481 -1.425628 27.769898 25.260466 25.272345 -4.472135 0.000005 -0.000004 0.000000 0.000001 -0.000000 48.879822 -6.429083 13.547576 4.674744 -11.097781 0.498030 -27.116531 -15.315523 20.967972 -44.288176 0.000243 0.000100 -0.000001 -0.000001 -0.000000 
1.032946 22.499577 -1.576846 17.964328 -10.187314 -3.832314 11.667198 15.350739 -10.259088 2.886042 3.978106 -0.232997 0.000000 0.000000 0.000000 2.857351 4.195421 -0.413711 -0.775489 -2.317382 4.285788 -7.176065 -9.471882 10.982042 0.000000 -0.000000 -0.000000 1.200893 -1.794904 -15.693828 0.000000 0.000000 0.000000 -10.576670 29.125125 -39.831642 -0.000008 -14.202267 -0.000007 18.131907 -16.995310 22.228620 -5.549658 -6.736303 3.295533 8.061846 27.560107 1.140171 -10.020045 -14.017859 7.739307 -0.000002 -0.000002 -0.000000 -1.804120 -6.064278 -12.527726 0.233815 1.640173 -16.225627 0.245523 1.679849 -16.629673 0.000000 0.000001 0.000000 -1.242797 -0.654476 -18.510858 0.385029 2.090608 -20.868236 0.461236 2.280379 -22.866502 0.000002 0.000001 0.000000 0.044777 3.667166 -25.898583 0.498609 2.366919 -23.787828 0.584516 2.552807 -25.789582 -0.000000 0.000003 -0.000001 2.895102 12.404901 -5.753552 0.000000 0.000000 0.000000 -30.220005 69.244239 3.681478 0.000000 96.122379 -0.000050 20.583414 21.050436 -13.126462 -15.466386 26.941200 3.833675 9.820612 -45.228645 -5.419508 -7.056233 3.101007 -14.195940 0.000001 -0.000003 -0.000000 0.750057 -4.663067 13.088626 0.153302 -1.186280 14.726137 0.153101 -1.185540 14.716611 -0.000000 0.000001 0.000003 1.442565 -5.897361 30.789574 0.743595 -2.526502 32.796089 0.834099 -2.661538 34.795169 0.000000 -0.000001 0.000000 2.163477 -6.430864 41.453723 1.092410 -2.998876 40.023034 1.198314 -3.120464 42.007050 0.000001 0.000000 0.000002 -100.927950 1.489852 -2.200019 43.922611 17.423997 -1.775539 25.895375 24.909498 23.110732 -4.472129 0.000012 0.000006 -0.000000 0.000000 0.000000 39.273543 -7.971530 9.838027 20.649052 -9.196523 4.665116 -31.277912 -16.959840 20.279062 -40.965040 0.000247 0.000100 0.000001 -0.000003 -0.000001 
0.407034 22.691677 -0.927895 19.591230 -9.549977 -3.913722 12.087843 14.469819 -10.346763 2.894022 3.864281 -0.347312 0.000000 0.000000 0.000000 2.866418 4.074820 -0.524100 -0.868210 -2.297585 4.191815 -7.411890 -9.572890 10.876491 0.000002 -0.000000 0.000000 1.202263 -2.183948 -16.571229 0.000000 0.000000 0.000000 -11.438036 28.007285 -38.630870 0.000004 -16.749036 0.000004 18.480074 -16.138088 23.428225 -5.643240 -6.771497 3.367527 8.046187 27.556902 1.185215 -10.020044 -14.017862 7.739302 -0.000002 -0.000005 0.000001 -1.795908 -6.071800 -12.471864 0.230451 1.628581 -16.107816 0.241299 1.665646 -16.484880 0.000000 0.000000 -0.000000 -1.235646 -0.671458 -18.375639 0.382572 2.084161 -20.800750 0.456999 2.270298 -22.759654 0.000000 0.000001 -0.000002 0.039985 3.645364 -25.686409 0.495627 2.360203 -23.716041 0.583124 2.549907 -25.758102 0.000002 -0.000002 -0.000002 2.921969 12.894771 -5.335081 0.000000 0.000000 0.000000 -27.021072 67.470227 0.787318 -0.000015 97.583644 -0.000015 24.180828 21.456165 -15.177642 -15.633629 26.955505 3.677461 9.785872 -44.821798 -5.396974 -7.056232 3.100998 -14.195942 0.000000 0.000001 0.000003 0.717158 -4.607651 12.288682 0.137021 -1.122547 13.918184 0.136634 -1.120928 13.897797 0.000001 -0.000000 -0.000000 1.306894 -5.767763 28.660249 0.670840 -2.409941 31.106614 0.758255 -2.549051 33.126848 0.000002 0.000000 -0.000000 1.971124 -6.299198 38.969378 0.968391 -2.844900 37.590745 1.068253 -2.969919 39.559096 0.000000 -0.000000 -0.000001 -103.231097 1.064453 -1.427494 47.736961 15.834293 -2.024888 24.187884 24.639762 21.012667 -4.472118 -0.000003 0.000005 0.000001 -0.000004 -0.000000 31.590704 -8.896268 6.576599 31.451495 -7.176452 7.159451 -31.920172 -18.041101 20.327224 -37.360684 0.000233 0.000085 0.000001 -0.000002 0.000001 
-0.211963 22.874367 -0.283916 21.250546 -8.977881 -3.989011 12.521846 13.615922 -10.488175 2.901912 3.747257 -0.467799 0.000000 0.000000 0.000000 2.875575 3.951238 -0.641015 -0.967470 -2.276757 4.092982 -7.655635 -9.668304 10.774950 -0.000001 -0.000000 -0.000000 1.192191 -2.545274 -17.494082 0.000000 0.000000 0.000000 -12.336946 26.855240 -37.455139 -0.000007 -19.379955 -0.000009 18.788822 -15.181793 24.605545 -5.737358 -6.807018 3.439788 8.030425 27.553649 1.230517 -10.020041 -14.017858 7.739298 -0.000004 -0.000000 0.000003 -1.787651 -6.079358 -12.415694 0.227105 1.616906 -15.989348 0.237413 1.652475 -16.350711 0.000000 -0.000000 0.000000 -1.228407 -0.688517 -18.239648 0.380524 2.078746 -20.744278 0.453646 2.262287 -22.674845 -0.000000 0.000001 -0.000000 0.035230 3.623438 -25.473086 0.493227 2.354714 -23.657456 0.583304 2.550275 -25.762058 -0.000001 0.000001 -0.000000 2.947549 13.415566 -4.901027 0.000000 0.000000 0.000000 -24.203612 65.584023 -1.746803 -0.000026 99.080698 -0.000030 27.863635 21.684522 -17.233062 -15.804323 26.970523 3.518048 9.750402 -44.406509 -5.373798 -7.056228 3.101000 -14.195942 -0.000000 -0.000002 -0.000002 0.684510 -4.550862 11.475710 0.121334 -1.057244 13.093343 0.120696 -1.054451 13.058280 -0.000001 -0.000003 0.000001 1.172692 -5.629135 26.469223 0.599704 -2.287996 29.371087 0.684064 -2.431695 31.419611 0.000001 0.000002 0.000001 1.777383 -6.150695 36.414576 0.848412 -2.682008 35.102347 0.941696 -2.809901 37.049391 -0.000002 0.000000 -0.000000 -105.384061 0.535239 -0.636450 51.160063 14.269645 -2.208327 22.589416 24.437061 18.957443 -4.472133 -0.000006 -0.000001 0.000000 0.000001 0.000000 24.612037 -9.595739 3.457112 39.885525 -4.968349 8.660784 -30.776559 -18.854268 20.676186 -36.699914 -0.172969 3.177638 -0.000001 0.000001 -0.000001 
-0.826445 23.058346 0.368162 22.938936 -8.437555 -4.077920 12.961968 12.761914 -10.656164 2.909737 3.626957 -0.594638 0.000000 0.000000 0.000000 2.880758 3.824572 -0.764597 -1.073811 -2.254797 3.988813 -7.907965 -9.757604 10.677780 -0.000001 -0.000000 0.000000 1.171182 -2.879766 -18.461125 0.000000 0.000000 0.000000 -13.275145 25.668686 -36.310682 0.000004 -22.092952 0.000000 19.054245 -14.131873 25.759686 -5.832136 -6.842883 3.512370 8.014581 27.550374 1.276093 -10.020041 -14.017859 7.739303 -0.000004 0.000001 0.000002 -1.779350 -6.086969 -12.359179 0.223761 1.605186 -15.870165 0.233909 1.640491 -16.228866 0.000001 -0.000001 0.000000 -1.221100 -0.705669 -18.102826 0.378936 2.074569 -20.700529 0.451308 2.256693 -22.615562 -0.000000 0.000000 0.000001 0.030536 3.601340 -25.258424 0.491444 2.350671 -23.614259 0.585309 2.554410 -25.807158 -0.000000 -0.000001 0.000002 2.970389 13.964349 -4.451078 0.000000 0.000000 0.000000 -21.721564 63.600276 -3.964433 0.000002 100.611139 -0.000025 31.608838 21.739013 -19.246414 -15.978944 26.986337 3.354961 9.714145 -43.981637 -5.349878 -7.056226 3.101002 -14.195944 0.000001 0.000000 0.000003 0.652320 -4.492953 10.653404 0.106379 -0.990749 12.256444 0.105472 -0.986565 12.204002 0.000001 -0.000001 0.000001 1.041661 -5.482472 24.234430 0.531057 -2.161589 27.602758 0.612301 -2.310198 29.684812 -0.000000 0.000000 -0.000000 1.586082 -5.986962 33.809993 0.733839 -2.511293 32.573910 0.820235 -2.641517 34.495870 0.000004 -0.000001 -0.000000 -107.368217 -0.086356 0.161830 54.254610 12.701509 -2.351584 21.042274 24.293395 16.936993 -4.472130 0.000011 -0.000003 0.000000 -0.000001 -0.000000 18.099865 -10.152979 0.391997 46.481408 -2.655727 9.587865 -28.381424 -19.391534 21.021201 -36.740810 -0.873369 7.234588 0.000001 0.000002 0.000001 
